<mxfile host="Electron" agent="Mozilla/5.0 (Windows NT 10.0; Win64; x64) AppleWebKit/537.36 (KHTML, like Gecko) draw.io/24.7.8 Chrome/128.0.6613.36 Electron/32.0.1 Safari/537.36" version="24.7.8">
  <diagram name="Pagina-1" id="f8DElW83291utPv9S6O0">
    <mxGraphModel dx="2790" dy="1393" grid="1" gridSize="10" guides="1" tooltips="1" connect="1" arrows="1" fold="1" page="1" pageScale="1" pageWidth="827" pageHeight="1169" math="0" shadow="0">
      <root>
        <mxCell id="0" />
        <mxCell id="1" parent="0" />
        <mxCell id="PLUFHSTD39UYiwxeZ5gk-1" value="" style="strokeWidth=1;shadow=0;dashed=0;align=center;html=1;shape=mxgraph.mockup.containers.browserWindow;rSize=0;strokeColor=#666666;strokeColor2=#008cff;strokeColor3=#c4c4c4;mainText=,;recursiveResize=0;" parent="1" vertex="1">
          <mxGeometry x="160" y="70" width="1160" height="810" as="geometry" />
        </mxCell>
        <mxCell id="PLUFHSTD39UYiwxeZ5gk-2" value="Page 1" style="strokeWidth=1;shadow=0;dashed=0;align=center;html=1;shape=mxgraph.mockup.containers.anchor;fontSize=17;fontColor=#666666;align=left;whiteSpace=wrap;" parent="PLUFHSTD39UYiwxeZ5gk-1" vertex="1">
          <mxGeometry x="60" y="12" width="110" height="26" as="geometry" />
        </mxCell>
        <mxCell id="PLUFHSTD39UYiwxeZ5gk-3" value="https://www.mypersonaldriver/documents.it" style="strokeWidth=1;shadow=0;dashed=0;align=center;html=1;shape=mxgraph.mockup.containers.anchor;rSize=0;fontSize=17;fontColor=#666666;align=left;" parent="PLUFHSTD39UYiwxeZ5gk-1" vertex="1">
          <mxGeometry x="130" y="60" width="250" height="26" as="geometry" />
        </mxCell>
        <mxCell id="PLUFHSTD39UYiwxeZ5gk-55" value="" style="line;strokeWidth=4;html=1;perimeter=backbonePerimeter;points=[];outlineConnect=0;" parent="PLUFHSTD39UYiwxeZ5gk-1" vertex="1">
          <mxGeometry y="190" width="1160" height="10" as="geometry" />
        </mxCell>
        <mxCell id="PLUFHSTD39UYiwxeZ5gk-58" value="" style="shape=mxgraph.signs.transportation.car_4;html=1;pointerEvents=1;fillColor=#000000;strokeColor=none;verticalLabelPosition=bottom;verticalAlign=top;align=center;" parent="PLUFHSTD39UYiwxeZ5gk-1" vertex="1">
          <mxGeometry x="545" y="120" width="70" height="60" as="geometry" />
        </mxCell>
        <mxCell id="PLUFHSTD39UYiwxeZ5gk-60" value="" style="line;strokeWidth=4;html=1;perimeter=backbonePerimeter;points=[];outlineConnect=0;" parent="PLUFHSTD39UYiwxeZ5gk-1" vertex="1">
          <mxGeometry y="660" width="1160" height="10" as="geometry" />
        </mxCell>
        <mxCell id="PLUFHSTD39UYiwxeZ5gk-61" value="About us" style="strokeWidth=1;shadow=0;dashed=0;align=center;html=1;shape=mxgraph.mockup.buttons.button;strokeColor=#666666;fontColor=#ffffff;mainText=;buttonStyle=round;fontSize=17;fontStyle=1;fillColor=#008cff;whiteSpace=wrap;" parent="PLUFHSTD39UYiwxeZ5gk-1" vertex="1">
          <mxGeometry x="505" y="680" width="150" height="50" as="geometry" />
        </mxCell>
        <mxCell id="oFypFvJvbbyA2B_Ccl1Z-2" value="" style="strokeWidth=1;shadow=0;dashed=0;align=center;html=1;shape=mxgraph.mockup.forms.rrect;rSize=0;strokeColor=#999999;fillColor=#ffffff;" parent="PLUFHSTD39UYiwxeZ5gk-1" vertex="1">
          <mxGeometry x="487" y="240" width="200" height="300" as="geometry" />
        </mxCell>
        <mxCell id="oFypFvJvbbyA2B_Ccl1Z-3" value="Sign In" style="strokeWidth=1;shadow=0;dashed=0;align=center;html=1;shape=mxgraph.mockup.forms.anchor;fontSize=12;fontColor=#666666;align=left;resizeWidth=1;spacingLeft=0;" parent="oFypFvJvbbyA2B_Ccl1Z-2" vertex="1">
          <mxGeometry width="100" height="20" relative="1" as="geometry">
            <mxPoint x="10" y="10" as="offset" />
          </mxGeometry>
        </mxCell>
        <mxCell id="oFypFvJvbbyA2B_Ccl1Z-4" value="" style="shape=line;strokeColor=#ddeeff;strokeWidth=2;html=1;resizeWidth=1;" parent="oFypFvJvbbyA2B_Ccl1Z-2" vertex="1">
          <mxGeometry width="180" height="10" relative="1" as="geometry">
            <mxPoint x="10" y="30" as="offset" />
          </mxGeometry>
        </mxCell>
        <mxCell id="oFypFvJvbbyA2B_Ccl1Z-5" value="Email:" style="strokeWidth=1;shadow=0;dashed=0;align=center;html=1;shape=mxgraph.mockup.forms.anchor;fontSize=12;fontColor=#666666;align=left;resizeWidth=1;spacingLeft=0;" parent="oFypFvJvbbyA2B_Ccl1Z-2" vertex="1">
          <mxGeometry width="100" height="20" relative="1" as="geometry">
            <mxPoint x="10" y="40" as="offset" />
          </mxGeometry>
        </mxCell>
        <mxCell id="oFypFvJvbbyA2B_Ccl1Z-6" value="johndoe@email.com" style="strokeWidth=1;shadow=0;dashed=0;align=center;html=1;shape=mxgraph.mockup.forms.rrect;rSize=0;strokeColor=#999999;fontColor=#666666;align=left;spacingLeft=5;resizeWidth=1;" parent="oFypFvJvbbyA2B_Ccl1Z-2" vertex="1">
          <mxGeometry width="150" height="25" relative="1" as="geometry">
            <mxPoint x="10" y="60" as="offset" />
          </mxGeometry>
        </mxCell>
        <mxCell id="oFypFvJvbbyA2B_Ccl1Z-7" value="Password:" style="strokeWidth=1;shadow=0;dashed=0;align=center;html=1;shape=mxgraph.mockup.forms.anchor;fontSize=12;fontColor=#666666;align=left;resizeWidth=1;spacingLeft=0;" parent="oFypFvJvbbyA2B_Ccl1Z-2" vertex="1">
          <mxGeometry width="100" height="20" relative="1" as="geometry">
            <mxPoint x="10" y="95" as="offset" />
          </mxGeometry>
        </mxCell>
        <mxCell id="oFypFvJvbbyA2B_Ccl1Z-8" value="********" style="strokeWidth=1;shadow=0;dashed=0;align=center;html=1;shape=mxgraph.mockup.forms.rrect;rSize=0;strokeColor=#999999;fontColor=#666666;align=left;spacingLeft=5;resizeWidth=1;" parent="oFypFvJvbbyA2B_Ccl1Z-2" vertex="1">
          <mxGeometry width="150" height="25" relative="1" as="geometry">
            <mxPoint x="10" y="115" as="offset" />
          </mxGeometry>
        </mxCell>
        <mxCell id="oFypFvJvbbyA2B_Ccl1Z-9" value="SIGN IN" style="strokeWidth=1;shadow=0;dashed=0;align=center;html=1;shape=mxgraph.mockup.forms.rrect;rSize=5;strokeColor=none;fontColor=#ffffff;fillColor=#66bbff;fontSize=16;fontStyle=1;" parent="oFypFvJvbbyA2B_Ccl1Z-2" vertex="1">
          <mxGeometry y="1" width="80" height="30" relative="1" as="geometry">
            <mxPoint x="20" y="-150" as="offset" />
          </mxGeometry>
        </mxCell>
        <mxCell id="oFypFvJvbbyA2B_Ccl1Z-10" value="Forgot Password?" style="strokeWidth=1;shadow=0;dashed=0;align=center;html=1;shape=mxgraph.mockup.forms.anchor;fontSize=12;fontColor=#9999ff;align=left;spacingLeft=0;fontStyle=4;resizeWidth=1;" parent="oFypFvJvbbyA2B_Ccl1Z-2" vertex="1">
          <mxGeometry y="1" width="150" height="20" relative="1" as="geometry">
            <mxPoint x="10" y="-110" as="offset" />
          </mxGeometry>
        </mxCell>
        <mxCell id="oFypFvJvbbyA2B_Ccl1Z-11" value="" style="shape=line;strokeColor=#ddeeff;strokeWidth=2;html=1;resizeWidth=1;" parent="oFypFvJvbbyA2B_Ccl1Z-2" vertex="1">
          <mxGeometry y="1" width="180" height="10" relative="1" as="geometry">
            <mxPoint x="10" y="-90" as="offset" />
          </mxGeometry>
        </mxCell>
        <mxCell id="oFypFvJvbbyA2B_Ccl1Z-12" value="Not registred?" style="strokeWidth=1;shadow=0;dashed=0;align=center;html=1;shape=mxgraph.mockup.forms.anchor;fontSize=12;fontColor=#666666;align=left;spacingLeft=0;resizeWidth=1;" parent="oFypFvJvbbyA2B_Ccl1Z-2" vertex="1">
          <mxGeometry y="1" width="150" height="20" relative="1" as="geometry">
            <mxPoint x="10" y="-70" as="offset" />
          </mxGeometry>
        </mxCell>
        <mxCell id="oFypFvJvbbyA2B_Ccl1Z-13" value="SIGN UP" style="strokeWidth=1;shadow=0;dashed=0;align=center;html=1;shape=mxgraph.mockup.forms.rrect;rSize=5;strokeColor=none;fontColor=#ffffff;fillColor=#66bbff;fontSize=16;fontStyle=1;" parent="oFypFvJvbbyA2B_Ccl1Z-2" vertex="1">
          <mxGeometry y="1" width="80" height="30" relative="1" as="geometry">
            <mxPoint x="13" y="-50" as="offset" />
          </mxGeometry>
        </mxCell>
        <mxCell id="oFypFvJvbbyA2B_Ccl1Z-14" value="" style="html=1;verticalLabelPosition=bottom;align=center;labelBackgroundColor=#ffffff;verticalAlign=top;strokeWidth=2;strokeColor=#0080F0;shadow=0;dashed=0;shape=mxgraph.ios7.icons.eye;" parent="oFypFvJvbbyA2B_Ccl1Z-2" vertex="1">
          <mxGeometry x="163" y="120" width="27" height="14.1" as="geometry" />
        </mxCell>
        <mxCell id="TdJrCMo5KUDWPo_WL5wz-21" value="Not registred?" style="text;whiteSpace=wrap;html=1;" vertex="1" parent="1">
          <mxGeometry x="1400" y="140" width="110" height="40" as="geometry" />
        </mxCell>
        <mxCell id="TdJrCMo5KUDWPo_WL5wz-23" value="SIGN UP" style="strokeWidth=1;shadow=0;dashed=0;align=center;html=1;shape=mxgraph.mockup.forms.rrect;rSize=5;strokeColor=none;fontColor=#ffffff;fillColor=#66bbff;fontSize=16;fontStyle=1;" vertex="1" parent="1">
          <mxGeometry x="1400" y="170" width="80" height="30" as="geometry" />
        </mxCell>
        <mxCell id="TdJrCMo5KUDWPo_WL5wz-24" value="On Click&lt;br&gt;Navigate to Register&lt;div&gt;&lt;br&gt;&lt;/div&gt;" style="text;html=1;align=center;verticalAlign=middle;whiteSpace=wrap;rounded=0;" vertex="1" parent="1">
          <mxGeometry x="1410" y="230" width="60" height="30" as="geometry" />
        </mxCell>
        <mxCell id="TdJrCMo5KUDWPo_WL5wz-25" value="" style="html=1;verticalLabelPosition=bottom;align=center;labelBackgroundColor=#ffffff;verticalAlign=top;strokeWidth=2;strokeColor=#0080F0;shadow=0;dashed=0;shape=mxgraph.ios7.icons.eye;" vertex="1" parent="1">
          <mxGeometry x="1427.5" y="310" width="25" height="14.1" as="geometry" />
        </mxCell>
        <mxCell id="TdJrCMo5KUDWPo_WL5wz-26" value="OnClick view password" style="text;html=1;align=center;verticalAlign=middle;whiteSpace=wrap;rounded=0;" vertex="1" parent="1">
          <mxGeometry x="1410" y="340" width="60" height="30" as="geometry" />
        </mxCell>
        <mxCell id="TdJrCMo5KUDWPo_WL5wz-40" value="Forgot Password?" style="strokeWidth=1;shadow=0;dashed=0;align=center;html=1;shape=mxgraph.mockup.forms.anchor;fontSize=12;fontColor=#9999ff;align=left;spacingLeft=0;fontStyle=4;resizeWidth=1;" vertex="1" parent="1">
          <mxGeometry x="1390" y="430" width="150" height="20" as="geometry" />
        </mxCell>
        <mxCell id="TdJrCMo5KUDWPo_WL5wz-41" value="On click navigate to reset Password" style="text;html=1;align=center;verticalAlign=middle;whiteSpace=wrap;rounded=0;" vertex="1" parent="1">
          <mxGeometry x="1410" y="490" width="60" height="30" as="geometry" />
        </mxCell>
        <mxCell id="TdJrCMo5KUDWPo_WL5wz-42" value="&lt;font style=&quot;font-size: 24px;&quot;&gt;Use Case 000&lt;/font&gt;" style="text;html=1;align=center;verticalAlign=middle;whiteSpace=wrap;rounded=0;" vertex="1" parent="1">
          <mxGeometry x="620" width="240" height="30" as="geometry" />
        </mxCell>
      </root>
    </mxGraphModel>
  </diagram>
</mxfile>
